<mxfile host="Electron" agent="Mozilla/5.0 (Windows NT 10.0; Win64; x64) AppleWebKit/537.36 (KHTML, like Gecko) draw.io/26.1.1 Chrome/132.0.6834.210 Electron/34.3.3 Safari/537.36" version="26.1.1">
  <diagram name="Page-1" id="ZJ5X_2FD5nzBGdT9soHm">
    <mxGraphModel dx="1900" dy="621" grid="1" gridSize="9" guides="1" tooltips="1" connect="1" arrows="1" fold="1" page="1" pageScale="1" pageWidth="850" pageHeight="1100" math="0" shadow="0">
      <root>
        <mxCell id="0" />
        <mxCell id="1" parent="0" />
        <mxCell id="9J0fWJdIPTmFVP43Fnf9-135" value="Registers As" style="shape=rhombus;perimeter=rhombusPerimeter;whiteSpace=wrap;html=1;align=center;container=0;fillColor=#d5e8d4;strokeColor=#82b366;" parent="1" vertex="1">
          <mxGeometry x="-290" y="510" width="120" height="60" as="geometry" />
        </mxCell>
        <mxCell id="9J0fWJdIPTmFVP43Fnf9-141" value="Manages System" style="shape=rhombus;perimeter=rhombusPerimeter;whiteSpace=wrap;html=1;align=center;container=0;fillColor=#d5e8d4;strokeColor=#82b366;" parent="1" vertex="1">
          <mxGeometry x="-40" y="320" width="120" height="60" as="geometry" />
        </mxCell>
        <mxCell id="9J0fWJdIPTmFVP43Fnf9-142" value="" style="endArrow=none;html=1;rounded=0;exitX=0.5;exitY=1;exitDx=0;exitDy=0;entryX=0.5;entryY=0;entryDx=0;entryDy=0;" parent="1" source="9J0fWJdIPTmFVP43Fnf9-15" target="9J0fWJdIPTmFVP43Fnf9-141" edge="1">
          <mxGeometry relative="1" as="geometry">
            <mxPoint x="-100" y="490" as="sourcePoint" />
            <mxPoint x="60" y="490" as="targetPoint" />
          </mxGeometry>
        </mxCell>
        <mxCell id="9J0fWJdIPTmFVP43Fnf9-1" value="Authentication" style="whiteSpace=wrap;html=1;align=center;container=0;fillColor=#dae8fc;strokeColor=#6c8ebf;" parent="1" vertex="1">
          <mxGeometry x="-25" y="540" width="100" height="40" as="geometry" />
        </mxCell>
        <mxCell id="9J0fWJdIPTmFVP43Fnf9-18" value="Authentication ID" style="ellipse;whiteSpace=wrap;html=1;align=center;fontStyle=4;container=0;fillColor=#fff2cc;strokeColor=#d6b656;" parent="1" vertex="1">
          <mxGeometry x="-150" y="460" width="110" height="50" as="geometry" />
        </mxCell>
        <mxCell id="9J0fWJdIPTmFVP43Fnf9-20" value="" style="endArrow=none;html=1;rounded=0;entryX=0.25;entryY=0;entryDx=0;entryDy=0;exitX=1;exitY=1;exitDx=0;exitDy=0;" parent="1" source="9J0fWJdIPTmFVP43Fnf9-18" target="9J0fWJdIPTmFVP43Fnf9-1" edge="1">
          <mxGeometry relative="1" as="geometry">
            <mxPoint x="-100" y="470" as="sourcePoint" />
            <mxPoint x="60" y="470" as="targetPoint" />
          </mxGeometry>
        </mxCell>
        <mxCell id="9J0fWJdIPTmFVP43Fnf9-21" value="User ID" style="ellipse;whiteSpace=wrap;html=1;align=center;container=0;fillColor=#fff2cc;strokeColor=#d6b656;" parent="1" vertex="1">
          <mxGeometry x="40" y="407.5" width="100" height="40" as="geometry" />
        </mxCell>
        <mxCell id="9J0fWJdIPTmFVP43Fnf9-26" value="Email ID" style="ellipse;whiteSpace=wrap;html=1;align=center;container=0;fillColor=#fff2cc;strokeColor=#d6b656;" parent="1" vertex="1">
          <mxGeometry x="180" y="507.5" width="100" height="40" as="geometry" />
        </mxCell>
        <mxCell id="9J0fWJdIPTmFVP43Fnf9-27" value="Password Hash" style="ellipse;whiteSpace=wrap;html=1;align=center;container=0;fillColor=#fff2cc;strokeColor=#d6b656;" parent="1" vertex="1">
          <mxGeometry x="170" y="557.5" width="100" height="40" as="geometry" />
        </mxCell>
        <mxCell id="9J0fWJdIPTmFVP43Fnf9-28" value="" style="endArrow=none;html=1;rounded=0;exitX=0.5;exitY=1;exitDx=0;exitDy=0;entryX=0.5;entryY=0;entryDx=0;entryDy=0;" parent="1" source="9J0fWJdIPTmFVP43Fnf9-21" target="9J0fWJdIPTmFVP43Fnf9-1" edge="1">
          <mxGeometry relative="1" as="geometry">
            <mxPoint y="500" as="sourcePoint" />
            <mxPoint x="160" y="500" as="targetPoint" />
          </mxGeometry>
        </mxCell>
        <mxCell id="9J0fWJdIPTmFVP43Fnf9-30" value="" style="endArrow=none;html=1;rounded=0;entryX=0;entryY=0.5;entryDx=0;entryDy=0;exitX=1;exitY=0.5;exitDx=0;exitDy=0;" parent="1" source="9J0fWJdIPTmFVP43Fnf9-1" target="9J0fWJdIPTmFVP43Fnf9-26" edge="1">
          <mxGeometry relative="1" as="geometry">
            <mxPoint x="80" y="550" as="sourcePoint" />
            <mxPoint x="160" y="500" as="targetPoint" />
          </mxGeometry>
        </mxCell>
        <mxCell id="9J0fWJdIPTmFVP43Fnf9-31" value="" style="endArrow=none;html=1;rounded=0;exitX=1;exitY=0.75;exitDx=0;exitDy=0;entryX=0;entryY=0.5;entryDx=0;entryDy=0;" parent="1" source="9J0fWJdIPTmFVP43Fnf9-1" target="9J0fWJdIPTmFVP43Fnf9-27" edge="1">
          <mxGeometry relative="1" as="geometry">
            <mxPoint x="-20" y="530" as="sourcePoint" />
            <mxPoint x="140" y="530" as="targetPoint" />
          </mxGeometry>
        </mxCell>
        <mxCell id="9J0fWJdIPTmFVP43Fnf9-143" value="" style="endArrow=none;html=1;rounded=0;exitX=0.5;exitY=1;exitDx=0;exitDy=0;entryX=0.43;entryY=-0.015;entryDx=0;entryDy=0;entryPerimeter=0;" parent="1" source="9J0fWJdIPTmFVP43Fnf9-141" target="9J0fWJdIPTmFVP43Fnf9-1" edge="1">
          <mxGeometry relative="1" as="geometry">
            <mxPoint x="-100" y="490" as="sourcePoint" />
            <mxPoint x="60" y="490" as="targetPoint" />
          </mxGeometry>
        </mxCell>
        <mxCell id="9J0fWJdIPTmFVP43Fnf9-144" value="Register As" style="shape=rhombus;perimeter=rhombusPerimeter;whiteSpace=wrap;html=1;align=center;container=0;fillColor=#d5e8d4;strokeColor=#82b366;" parent="1" vertex="1">
          <mxGeometry x="400" y="520" width="120" height="60" as="geometry" />
        </mxCell>
        <mxCell id="9J0fWJdIPTmFVP43Fnf9-145" value="" style="endArrow=none;html=1;rounded=0;exitX=0.5;exitY=1;exitDx=0;exitDy=0;entryX=0.5;entryY=0;entryDx=0;entryDy=0;" parent="1" source="9J0fWJdIPTmFVP43Fnf9-14" target="9J0fWJdIPTmFVP43Fnf9-144" edge="1">
          <mxGeometry relative="1" as="geometry">
            <mxPoint x="-170" y="360" as="sourcePoint" />
            <mxPoint x="-10" y="360" as="targetPoint" />
          </mxGeometry>
        </mxCell>
        <mxCell id="9J0fWJdIPTmFVP43Fnf9-146" value="" style="endArrow=none;html=1;rounded=0;exitX=0.5;exitY=1;exitDx=0;exitDy=0;entryX=0.5;entryY=1;entryDx=0;entryDy=0;" parent="1" source="9J0fWJdIPTmFVP43Fnf9-1" target="9J0fWJdIPTmFVP43Fnf9-144" edge="1">
          <mxGeometry relative="1" as="geometry">
            <mxPoint x="-170" y="400" as="sourcePoint" />
            <mxPoint x="-10" y="400" as="targetPoint" />
            <Array as="points">
              <mxPoint x="25" y="620" />
              <mxPoint x="240" y="620" />
              <mxPoint x="460" y="620" />
            </Array>
          </mxGeometry>
        </mxCell>
        <mxCell id="9J0fWJdIPTmFVP43Fnf9-150" value="Posts" style="shape=rhombus;perimeter=rhombusPerimeter;whiteSpace=wrap;html=1;align=center;container=0;fillColor=#d5e8d4;strokeColor=#82b366;" parent="1" vertex="1">
          <mxGeometry x="610" y="455" width="120" height="60" as="geometry" />
        </mxCell>
        <mxCell id="9J0fWJdIPTmFVP43Fnf9-152" value="" style="endArrow=none;html=1;rounded=0;exitX=0.797;exitY=1.055;exitDx=0;exitDy=0;exitPerimeter=0;entryX=0;entryY=0.5;entryDx=0;entryDy=0;" parent="1" source="9J0fWJdIPTmFVP43Fnf9-14" target="9J0fWJdIPTmFVP43Fnf9-150" edge="1">
          <mxGeometry relative="1" as="geometry">
            <mxPoint x="250" y="470" as="sourcePoint" />
            <mxPoint x="410" y="470" as="targetPoint" />
            <Array as="points">
              <mxPoint x="490" y="485" />
            </Array>
          </mxGeometry>
        </mxCell>
        <mxCell id="9J0fWJdIPTmFVP43Fnf9-153" value="" style="endArrow=none;html=1;rounded=0;exitX=1;exitY=0.5;exitDx=0;exitDy=0;entryX=0.5;entryY=1;entryDx=0;entryDy=0;" parent="1" source="9J0fWJdIPTmFVP43Fnf9-150" target="9J0fWJdIPTmFVP43Fnf9-5" edge="1">
          <mxGeometry relative="1" as="geometry">
            <mxPoint x="480" y="440" as="sourcePoint" />
            <mxPoint x="640" y="440" as="targetPoint" />
            <Array as="points">
              <mxPoint x="900" y="485" />
            </Array>
          </mxGeometry>
        </mxCell>
        <mxCell id="9J0fWJdIPTmFVP43Fnf9-154" value="Recieves" style="shape=rhombus;perimeter=rhombusPerimeter;whiteSpace=wrap;html=1;align=center;container=0;fillColor=#d5e8d4;strokeColor=#82b366;" parent="1" vertex="1">
          <mxGeometry x="870" y="730" width="120" height="60" as="geometry" />
        </mxCell>
        <mxCell id="9J0fWJdIPTmFVP43Fnf9-155" value="" style="endArrow=none;html=1;rounded=0;entryX=0.5;entryY=1;entryDx=0;entryDy=0;exitX=0.537;exitY=1.001;exitDx=0;exitDy=0;exitPerimeter=0;" parent="1" source="9J0fWJdIPTmFVP43Fnf9-12" target="9J0fWJdIPTmFVP43Fnf9-154" edge="1">
          <mxGeometry relative="1" as="geometry">
            <mxPoint x="640" y="900" as="sourcePoint" />
            <mxPoint x="430" y="480" as="targetPoint" />
            <Array as="points">
              <mxPoint x="644" y="920" />
              <mxPoint x="930" y="920" />
            </Array>
          </mxGeometry>
        </mxCell>
        <mxCell id="9J0fWJdIPTmFVP43Fnf9-156" value="" style="endArrow=none;html=1;rounded=0;exitX=0.5;exitY=0;exitDx=0;exitDy=0;" parent="1" source="9J0fWJdIPTmFVP43Fnf9-154" edge="1">
          <mxGeometry relative="1" as="geometry">
            <mxPoint x="270" y="480" as="sourcePoint" />
            <mxPoint x="931" y="450" as="targetPoint" />
          </mxGeometry>
        </mxCell>
        <mxCell id="9J0fWJdIPTmFVP43Fnf9-10" value="Candidate" style="whiteSpace=wrap;html=1;align=center;container=0;fillColor=#dae8fc;strokeColor=#6c8ebf;" parent="1" vertex="1">
          <mxGeometry x="-600" y="487.5" width="100" height="40" as="geometry" />
        </mxCell>
        <mxCell id="9J0fWJdIPTmFVP43Fnf9-50" value="User ID" style="ellipse;whiteSpace=wrap;html=1;align=center;container=0;fillColor=#fff2cc;strokeColor=#d6b656;" parent="1" vertex="1">
          <mxGeometry x="-460" y="557.5" width="100" height="40" as="geometry" />
        </mxCell>
        <mxCell id="9J0fWJdIPTmFVP43Fnf9-51" value="Candidate ID" style="ellipse;whiteSpace=wrap;html=1;align=center;fontStyle=4;container=0;fillColor=#fff2cc;strokeColor=#d6b656;" parent="1" vertex="1">
          <mxGeometry x="-480" y="367.5" width="100" height="40" as="geometry" />
        </mxCell>
        <mxCell id="9J0fWJdIPTmFVP43Fnf9-52" value="Candidate Name" style="ellipse;whiteSpace=wrap;html=1;align=center;container=0;fillColor=#fff2cc;strokeColor=#d6b656;" parent="1" vertex="1">
          <mxGeometry x="-710" y="427.5" width="100" height="40" as="geometry" />
        </mxCell>
        <mxCell id="9J0fWJdIPTmFVP43Fnf9-53" value="Experience" style="ellipse;whiteSpace=wrap;html=1;align=center;container=0;fillColor=#fff2cc;strokeColor=#d6b656;" parent="1" vertex="1">
          <mxGeometry x="-760" y="620" width="100" height="40" as="geometry" />
        </mxCell>
        <mxCell id="9J0fWJdIPTmFVP43Fnf9-54" value="Phone Number" style="ellipse;shape=doubleEllipse;margin=3;whiteSpace=wrap;html=1;align=center;container=0;fillColor=#fff2cc;strokeColor=#d6b656;" parent="1" vertex="1">
          <mxGeometry x="-600" y="357.5" width="100" height="40" as="geometry" />
        </mxCell>
        <mxCell id="9J0fWJdIPTmFVP43Fnf9-55" value="" style="endArrow=none;html=1;rounded=0;exitX=0.821;exitY=0.862;exitDx=0;exitDy=0;exitPerimeter=0;entryX=0.134;entryY=0.001;entryDx=0;entryDy=0;entryPerimeter=0;" parent="1" source="9J0fWJdIPTmFVP43Fnf9-52" target="9J0fWJdIPTmFVP43Fnf9-10" edge="1">
          <mxGeometry relative="1" as="geometry">
            <mxPoint x="-580" y="487.5" as="sourcePoint" />
            <mxPoint x="-580" y="487.5" as="targetPoint" />
          </mxGeometry>
        </mxCell>
        <mxCell id="9J0fWJdIPTmFVP43Fnf9-56" value="" style="endArrow=none;html=1;rounded=0;entryX=0.5;entryY=1;entryDx=0;entryDy=0;exitX=0.5;exitY=0;exitDx=0;exitDy=0;" parent="1" source="9J0fWJdIPTmFVP43Fnf9-10" target="9J0fWJdIPTmFVP43Fnf9-54" edge="1">
          <mxGeometry relative="1" as="geometry">
            <mxPoint x="-580" y="487.5" as="sourcePoint" />
            <mxPoint x="-420" y="487.5" as="targetPoint" />
          </mxGeometry>
        </mxCell>
        <mxCell id="9J0fWJdIPTmFVP43Fnf9-57" value="" style="endArrow=none;html=1;rounded=0;entryX=0.099;entryY=0.789;entryDx=0;entryDy=0;entryPerimeter=0;exitX=0.885;exitY=0.007;exitDx=0;exitDy=0;exitPerimeter=0;" parent="1" source="9J0fWJdIPTmFVP43Fnf9-10" target="9J0fWJdIPTmFVP43Fnf9-51" edge="1">
          <mxGeometry relative="1" as="geometry">
            <mxPoint x="-580" y="487.5" as="sourcePoint" />
            <mxPoint x="-420" y="487.5" as="targetPoint" />
          </mxGeometry>
        </mxCell>
        <mxCell id="9J0fWJdIPTmFVP43Fnf9-58" value="" style="endArrow=none;html=1;rounded=0;exitX=1;exitY=0;exitDx=0;exitDy=0;entryX=0.25;entryY=1;entryDx=0;entryDy=0;" parent="1" source="9J0fWJdIPTmFVP43Fnf9-53" target="9J0fWJdIPTmFVP43Fnf9-10" edge="1">
          <mxGeometry relative="1" as="geometry">
            <mxPoint x="-580" y="487.5" as="sourcePoint" />
            <mxPoint x="-569" y="525.5" as="targetPoint" />
          </mxGeometry>
        </mxCell>
        <mxCell id="9J0fWJdIPTmFVP43Fnf9-59" value="" style="endArrow=none;html=1;rounded=0;exitX=0.885;exitY=0.996;exitDx=0;exitDy=0;entryX=0;entryY=0.5;entryDx=0;entryDy=0;exitPerimeter=0;" parent="1" source="9J0fWJdIPTmFVP43Fnf9-10" target="9J0fWJdIPTmFVP43Fnf9-50" edge="1">
          <mxGeometry relative="1" as="geometry">
            <mxPoint x="-580" y="487.5" as="sourcePoint" />
            <mxPoint x="-420" y="487.5" as="targetPoint" />
          </mxGeometry>
        </mxCell>
        <mxCell id="9J0fWJdIPTmFVP43Fnf9-60" value="Candidate Email" style="ellipse;whiteSpace=wrap;html=1;align=center;container=0;fillColor=#fff2cc;strokeColor=#d6b656;" parent="1" vertex="1">
          <mxGeometry x="-770" y="560" width="100" height="40" as="geometry" />
        </mxCell>
        <mxCell id="9J0fWJdIPTmFVP43Fnf9-61" value="" style="endArrow=none;html=1;rounded=0;exitX=1;exitY=0.5;exitDx=0;exitDy=0;entryX=0.119;entryY=1.012;entryDx=0;entryDy=0;entryPerimeter=0;" parent="1" source="9J0fWJdIPTmFVP43Fnf9-60" target="9J0fWJdIPTmFVP43Fnf9-10" edge="1">
          <mxGeometry relative="1" as="geometry">
            <mxPoint x="-710" y="497.5" as="sourcePoint" />
            <mxPoint x="-550" y="497.5" as="targetPoint" />
          </mxGeometry>
        </mxCell>
        <mxCell id="9J0fWJdIPTmFVP43Fnf9-74" value="First Name" style="ellipse;whiteSpace=wrap;html=1;align=center;container=0;fillColor=#fff2cc;strokeColor=#d6b656;" parent="1" vertex="1">
          <mxGeometry x="-850" y="427.5" width="100" height="40" as="geometry" />
        </mxCell>
        <mxCell id="9J0fWJdIPTmFVP43Fnf9-75" value="Middle Name" style="ellipse;whiteSpace=wrap;html=1;align=center;container=0;fillColor=#fff2cc;strokeColor=#d6b656;" parent="1" vertex="1">
          <mxGeometry x="-810" y="357.5" width="100" height="40" as="geometry" />
        </mxCell>
        <mxCell id="9J0fWJdIPTmFVP43Fnf9-77" value="Last Name" style="ellipse;whiteSpace=wrap;html=1;align=center;container=0;fillColor=#fff2cc;strokeColor=#d6b656;" parent="1" vertex="1">
          <mxGeometry x="-700" y="327.5" width="100" height="40" as="geometry" />
        </mxCell>
        <mxCell id="9J0fWJdIPTmFVP43Fnf9-78" value="" style="endArrow=none;html=1;rounded=0;exitX=1;exitY=0.5;exitDx=0;exitDy=0;entryX=0;entryY=0.5;entryDx=0;entryDy=0;" parent="1" source="9J0fWJdIPTmFVP43Fnf9-74" target="9J0fWJdIPTmFVP43Fnf9-52" edge="1">
          <mxGeometry relative="1" as="geometry">
            <mxPoint x="-650" y="517.5" as="sourcePoint" />
            <mxPoint x="-490" y="517.5" as="targetPoint" />
          </mxGeometry>
        </mxCell>
        <mxCell id="9J0fWJdIPTmFVP43Fnf9-79" value="" style="endArrow=none;html=1;rounded=0;exitX=1;exitY=1;exitDx=0;exitDy=0;entryX=0.324;entryY=0.045;entryDx=0;entryDy=0;entryPerimeter=0;" parent="1" source="9J0fWJdIPTmFVP43Fnf9-75" target="9J0fWJdIPTmFVP43Fnf9-52" edge="1">
          <mxGeometry relative="1" as="geometry">
            <mxPoint x="-650" y="517.5" as="sourcePoint" />
            <mxPoint x="-490" y="517.5" as="targetPoint" />
          </mxGeometry>
        </mxCell>
        <mxCell id="9J0fWJdIPTmFVP43Fnf9-80" value="" style="endArrow=none;html=1;rounded=0;exitX=0.4;exitY=1.005;exitDx=0;exitDy=0;entryX=0.5;entryY=0;entryDx=0;entryDy=0;exitPerimeter=0;" parent="1" source="9J0fWJdIPTmFVP43Fnf9-77" target="9J0fWJdIPTmFVP43Fnf9-52" edge="1">
          <mxGeometry relative="1" as="geometry">
            <mxPoint x="-650" y="517.5" as="sourcePoint" />
            <mxPoint x="-490" y="517.5" as="targetPoint" />
          </mxGeometry>
        </mxCell>
        <mxCell id="9J0fWJdIPTmFVP43Fnf9-81" value="Skills" style="ellipse;shape=doubleEllipse;margin=3;whiteSpace=wrap;html=1;align=center;container=0;fillColor=#fff2cc;strokeColor=#d6b656;" parent="1" vertex="1">
          <mxGeometry x="-700" y="660" width="100" height="40" as="geometry" />
        </mxCell>
        <mxCell id="9J0fWJdIPTmFVP43Fnf9-84" value="" style="endArrow=none;html=1;rounded=0;exitX=0.382;exitY=1.003;exitDx=0;exitDy=0;exitPerimeter=0;entryX=0.5;entryY=0;entryDx=0;entryDy=0;" parent="1" source="9J0fWJdIPTmFVP43Fnf9-10" target="9J0fWJdIPTmFVP43Fnf9-81" edge="1">
          <mxGeometry relative="1" as="geometry">
            <mxPoint x="-680" y="477.5" as="sourcePoint" />
            <mxPoint x="-520" y="477.5" as="targetPoint" />
          </mxGeometry>
        </mxCell>
        <mxCell id="9J0fWJdIPTmFVP43Fnf9-86" value="Resume URL" style="ellipse;whiteSpace=wrap;html=1;align=center;container=0;fillColor=#fff2cc;strokeColor=#d6b656;" parent="1" vertex="1">
          <mxGeometry x="-440" y="447.5" width="100" height="40" as="geometry" />
        </mxCell>
        <mxCell id="9J0fWJdIPTmFVP43Fnf9-91" value="" style="endArrow=none;html=1;rounded=0;exitX=1;exitY=0.5;exitDx=0;exitDy=0;entryX=0.033;entryY=0.7;entryDx=0;entryDy=0;entryPerimeter=0;" parent="1" source="9J0fWJdIPTmFVP43Fnf9-10" target="9J0fWJdIPTmFVP43Fnf9-86" edge="1">
          <mxGeometry relative="1" as="geometry">
            <mxPoint x="-430" y="467.5" as="sourcePoint" />
            <mxPoint x="-270" y="467.5" as="targetPoint" />
          </mxGeometry>
        </mxCell>
        <mxCell id="9J0fWJdIPTmFVP43Fnf9-159" value="Applies For" style="shape=rhombus;perimeter=rhombusPerimeter;whiteSpace=wrap;html=1;align=center;container=0;fillColor=#d5e8d4;strokeColor=#82b366;" parent="1" vertex="1">
          <mxGeometry x="-560" y="810" width="120" height="60" as="geometry" />
        </mxCell>
        <mxCell id="9J0fWJdIPTmFVP43Fnf9-160" value="" style="endArrow=none;html=1;rounded=0;exitX=1;exitY=0.75;exitDx=0;exitDy=0;entryX=0;entryY=0.5;entryDx=0;entryDy=0;" parent="1" source="9J0fWJdIPTmFVP43Fnf9-10" target="9J0fWJdIPTmFVP43Fnf9-135" edge="1">
          <mxGeometry relative="1" as="geometry">
            <mxPoint x="-260" y="540" as="sourcePoint" />
            <mxPoint x="-100" y="540" as="targetPoint" />
            <Array as="points">
              <mxPoint x="-470" y="540" />
            </Array>
          </mxGeometry>
        </mxCell>
        <mxCell id="9J0fWJdIPTmFVP43Fnf9-161" value="" style="endArrow=none;html=1;rounded=0;entryX=0;entryY=0.5;entryDx=0;entryDy=0;exitX=1;exitY=0.5;exitDx=0;exitDy=0;" parent="1" source="9J0fWJdIPTmFVP43Fnf9-135" target="9J0fWJdIPTmFVP43Fnf9-1" edge="1">
          <mxGeometry relative="1" as="geometry">
            <mxPoint x="-260" y="540" as="sourcePoint" />
            <mxPoint x="-100" y="540" as="targetPoint" />
            <Array as="points">
              <mxPoint x="-50" y="540" />
            </Array>
          </mxGeometry>
        </mxCell>
        <mxCell id="9J0fWJdIPTmFVP43Fnf9-163" value="" style="endArrow=none;html=1;rounded=0;exitX=0.5;exitY=1;exitDx=0;exitDy=0;entryX=0.5;entryY=0;entryDx=0;entryDy=0;" parent="1" source="9J0fWJdIPTmFVP43Fnf9-10" target="9J0fWJdIPTmFVP43Fnf9-159" edge="1">
          <mxGeometry relative="1" as="geometry">
            <mxPoint x="-320" y="620" as="sourcePoint" />
            <mxPoint x="-160" y="620" as="targetPoint" />
            <Array as="points">
              <mxPoint x="-500" y="600" />
            </Array>
          </mxGeometry>
        </mxCell>
        <mxCell id="9J0fWJdIPTmFVP43Fnf9-164" value="" style="endArrow=none;html=1;rounded=0;entryX=0.25;entryY=1;entryDx=0;entryDy=0;exitX=0.5;exitY=1;exitDx=0;exitDy=0;" parent="1" source="9J0fWJdIPTmFVP43Fnf9-159" target="9J0fWJdIPTmFVP43Fnf9-12" edge="1">
          <mxGeometry relative="1" as="geometry">
            <mxPoint x="-90" y="680" as="sourcePoint" />
            <mxPoint x="70" y="680" as="targetPoint" />
            <Array as="points">
              <mxPoint x="-500" y="950" />
              <mxPoint x="560" y="950" />
            </Array>
          </mxGeometry>
        </mxCell>
        <mxCell id="9J0fWJdIPTmFVP43Fnf9-13" value="Interviews" style="whiteSpace=wrap;html=1;align=center;container=0;fillColor=#dae8fc;strokeColor=#6c8ebf;" parent="1" vertex="1">
          <mxGeometry x="380" y="1200" width="100" height="40" as="geometry" />
        </mxCell>
        <mxCell id="9J0fWJdIPTmFVP43Fnf9-117" value="Interview ID" style="ellipse;whiteSpace=wrap;html=1;align=center;fontStyle=4;container=0;fillColor=#fff2cc;strokeColor=#d6b656;" parent="1" vertex="1">
          <mxGeometry x="170" y="1080" width="100" height="40" as="geometry" />
        </mxCell>
        <mxCell id="9J0fWJdIPTmFVP43Fnf9-118" value="Application ID" style="ellipse;whiteSpace=wrap;html=1;align=center;container=0;fillColor=#fff2cc;strokeColor=#d6b656;" parent="1" vertex="1">
          <mxGeometry x="250" y="1040" width="100" height="40" as="geometry" />
        </mxCell>
        <mxCell id="9J0fWJdIPTmFVP43Fnf9-119" value="Recruiter ID" style="ellipse;whiteSpace=wrap;html=1;align=center;container=0;fillColor=#fff2cc;strokeColor=#d6b656;" parent="1" vertex="1">
          <mxGeometry x="470" y="1070" width="100" height="40" as="geometry" />
        </mxCell>
        <mxCell id="9J0fWJdIPTmFVP43Fnf9-120" value="Candidate ID" style="ellipse;whiteSpace=wrap;html=1;align=center;container=0;fillColor=#fff2cc;strokeColor=#d6b656;" parent="1" vertex="1">
          <mxGeometry x="490" y="1130" width="100" height="40" as="geometry" />
        </mxCell>
        <mxCell id="9J0fWJdIPTmFVP43Fnf9-121" value="Interview Date" style="ellipse;whiteSpace=wrap;html=1;align=center;container=0;fillColor=#fff2cc;strokeColor=#d6b656;" parent="1" vertex="1">
          <mxGeometry x="510" y="1280" width="100" height="40" as="geometry" />
        </mxCell>
        <mxCell id="9J0fWJdIPTmFVP43Fnf9-122" value="Status" style="ellipse;whiteSpace=wrap;html=1;align=center;container=0;fillColor=#fff2cc;strokeColor=#d6b656;" parent="1" vertex="1">
          <mxGeometry x="120" y="1140" width="100" height="40" as="geometry" />
        </mxCell>
        <mxCell id="9J0fWJdIPTmFVP43Fnf9-123" value="" style="endArrow=none;html=1;rounded=0;exitX=1;exitY=0.5;exitDx=0;exitDy=0;entryX=0;entryY=0.5;entryDx=0;entryDy=0;" parent="1" source="9J0fWJdIPTmFVP43Fnf9-122" target="9J0fWJdIPTmFVP43Fnf9-13" edge="1">
          <mxGeometry relative="1" as="geometry">
            <mxPoint x="410" y="1130" as="sourcePoint" />
            <mxPoint x="570" y="1130" as="targetPoint" />
          </mxGeometry>
        </mxCell>
        <mxCell id="9J0fWJdIPTmFVP43Fnf9-124" value="" style="endArrow=none;html=1;rounded=0;exitX=1;exitY=1;exitDx=0;exitDy=0;entryX=0.174;entryY=0.01;entryDx=0;entryDy=0;entryPerimeter=0;" parent="1" source="9J0fWJdIPTmFVP43Fnf9-117" target="9J0fWJdIPTmFVP43Fnf9-13" edge="1">
          <mxGeometry relative="1" as="geometry">
            <mxPoint x="420" y="1140" as="sourcePoint" />
            <mxPoint x="580" y="1140" as="targetPoint" />
          </mxGeometry>
        </mxCell>
        <mxCell id="9J0fWJdIPTmFVP43Fnf9-125" value="" style="endArrow=none;html=1;rounded=0;exitX=0.584;exitY=1.039;exitDx=0;exitDy=0;exitPerimeter=0;entryX=0.379;entryY=-0.01;entryDx=0;entryDy=0;entryPerimeter=0;" parent="1" source="9J0fWJdIPTmFVP43Fnf9-118" target="9J0fWJdIPTmFVP43Fnf9-13" edge="1">
          <mxGeometry relative="1" as="geometry">
            <mxPoint x="430" y="1150" as="sourcePoint" />
            <mxPoint x="590" y="1150" as="targetPoint" />
          </mxGeometry>
        </mxCell>
        <mxCell id="9J0fWJdIPTmFVP43Fnf9-126" value="" style="endArrow=none;html=1;rounded=0;exitX=0.4;exitY=1;exitDx=0;exitDy=0;exitPerimeter=0;entryX=0.692;entryY=-0.014;entryDx=0;entryDy=0;entryPerimeter=0;" parent="1" source="9J0fWJdIPTmFVP43Fnf9-119" target="9J0fWJdIPTmFVP43Fnf9-13" edge="1">
          <mxGeometry relative="1" as="geometry">
            <mxPoint x="440" y="1160" as="sourcePoint" />
            <mxPoint x="600" y="1160" as="targetPoint" />
          </mxGeometry>
        </mxCell>
        <mxCell id="9J0fWJdIPTmFVP43Fnf9-127" value="" style="endArrow=none;html=1;rounded=0;exitX=0.887;exitY=-0.001;exitDx=0;exitDy=0;exitPerimeter=0;entryX=0.214;entryY=0.925;entryDx=0;entryDy=0;entryPerimeter=0;" parent="1" source="9J0fWJdIPTmFVP43Fnf9-13" target="9J0fWJdIPTmFVP43Fnf9-120" edge="1">
          <mxGeometry relative="1" as="geometry">
            <mxPoint x="450" y="1170" as="sourcePoint" />
            <mxPoint x="610" y="1170" as="targetPoint" />
          </mxGeometry>
        </mxCell>
        <mxCell id="9J0fWJdIPTmFVP43Fnf9-128" value="" style="endArrow=none;html=1;rounded=0;exitX=0.75;exitY=1;exitDx=0;exitDy=0;entryX=0;entryY=0.5;entryDx=0;entryDy=0;" parent="1" source="9J0fWJdIPTmFVP43Fnf9-13" target="9J0fWJdIPTmFVP43Fnf9-121" edge="1">
          <mxGeometry relative="1" as="geometry">
            <mxPoint x="460" y="1180" as="sourcePoint" />
            <mxPoint x="550" y="1200" as="targetPoint" />
          </mxGeometry>
        </mxCell>
        <mxCell id="9J0fWJdIPTmFVP43Fnf9-167" value="Leads To" style="shape=rhombus;perimeter=rhombusPerimeter;whiteSpace=wrap;html=1;align=center;container=0;fillColor=#d5e8d4;strokeColor=#82b366;" parent="1" vertex="1">
          <mxGeometry x="560" y="1000" width="120" height="60" as="geometry" />
        </mxCell>
        <mxCell id="9J0fWJdIPTmFVP43Fnf9-168" value="" style="endArrow=none;html=1;rounded=0;exitX=0.303;exitY=0.99;exitDx=0;exitDy=0;exitPerimeter=0;entryX=0.5;entryY=0;entryDx=0;entryDy=0;" parent="1" source="9J0fWJdIPTmFVP43Fnf9-12" target="9J0fWJdIPTmFVP43Fnf9-167" edge="1">
          <mxGeometry relative="1" as="geometry">
            <mxPoint x="410" y="1120" as="sourcePoint" />
            <mxPoint x="570" y="1120" as="targetPoint" />
          </mxGeometry>
        </mxCell>
        <mxCell id="9J0fWJdIPTmFVP43Fnf9-169" value="" style="endArrow=none;html=1;rounded=0;exitX=0.5;exitY=1;exitDx=0;exitDy=0;entryX=1;entryY=0.5;entryDx=0;entryDy=0;" parent="1" source="9J0fWJdIPTmFVP43Fnf9-167" target="9J0fWJdIPTmFVP43Fnf9-13" edge="1">
          <mxGeometry relative="1" as="geometry">
            <mxPoint x="630" y="910" as="sourcePoint" />
            <mxPoint x="630" y="1010" as="targetPoint" />
            <Array as="points">
              <mxPoint x="620" y="1220" />
            </Array>
          </mxGeometry>
        </mxCell>
        <mxCell id="9J0fWJdIPTmFVP43Fnf9-176" value="1" style="text;html=1;align=center;verticalAlign=middle;resizable=0;points=[];autosize=1;strokeColor=none;fillColor=none;container=0;" parent="1" vertex="1">
          <mxGeometry x="590" y="452.5" width="30" height="30" as="geometry" />
        </mxCell>
        <mxCell id="9J0fWJdIPTmFVP43Fnf9-177" value="M" style="text;html=1;align=center;verticalAlign=middle;resizable=0;points=[];autosize=1;strokeColor=none;fillColor=none;container=0;" parent="1" vertex="1">
          <mxGeometry x="720" y="455" width="30" height="30" as="geometry" />
        </mxCell>
        <mxCell id="9J0fWJdIPTmFVP43Fnf9-178" value="1" style="text;html=1;align=center;verticalAlign=middle;resizable=0;points=[];autosize=1;strokeColor=none;fillColor=none;container=0;" parent="1" vertex="1">
          <mxGeometry x="-530" y="780" width="30" height="30" as="geometry" />
        </mxCell>
        <mxCell id="9J0fWJdIPTmFVP43Fnf9-179" value="M" style="text;html=1;align=center;verticalAlign=middle;resizable=0;points=[];autosize=1;strokeColor=none;fillColor=none;container=0;" parent="1" vertex="1">
          <mxGeometry x="-530" y="880" width="30" height="30" as="geometry" />
        </mxCell>
        <mxCell id="9J0fWJdIPTmFVP43Fnf9-180" value="" style="endArrow=none;html=1;rounded=0;exitX=0.582;exitY=0.933;exitDx=0;exitDy=0;entryX=1;entryY=0.75;entryDx=0;entryDy=0;exitPerimeter=0;" parent="1" source="9J0fWJdIPTmFVP43Fnf9-167" target="9J0fWJdIPTmFVP43Fnf9-13" edge="1">
          <mxGeometry relative="1" as="geometry">
            <mxPoint x="630" y="1070" as="sourcePoint" />
            <mxPoint x="490" y="1230" as="targetPoint" />
            <Array as="points">
              <mxPoint x="630" y="1140" />
              <mxPoint x="630" y="1230" />
            </Array>
          </mxGeometry>
        </mxCell>
        <mxCell id="9J0fWJdIPTmFVP43Fnf9-181" value="" style="endArrow=none;html=1;rounded=0;exitX=0.388;exitY=1.013;exitDx=0;exitDy=0;exitPerimeter=0;entryX=0.579;entryY=0.078;entryDx=0;entryDy=0;entryPerimeter=0;" parent="1" source="9J0fWJdIPTmFVP43Fnf9-12" target="9J0fWJdIPTmFVP43Fnf9-167" edge="1">
          <mxGeometry relative="1" as="geometry">
            <mxPoint x="550" y="920" as="sourcePoint" />
            <mxPoint x="710" y="920" as="targetPoint" />
          </mxGeometry>
        </mxCell>
        <mxCell id="9J0fWJdIPTmFVP43Fnf9-182" value="1" style="text;html=1;align=center;verticalAlign=middle;resizable=0;points=[];autosize=1;strokeColor=none;fillColor=none;container=0;" parent="1" vertex="1">
          <mxGeometry x="430" y="492.5" width="30" height="30" as="geometry" />
        </mxCell>
        <mxCell id="9J0fWJdIPTmFVP43Fnf9-183" value="1" style="text;html=1;align=center;verticalAlign=middle;resizable=0;points=[];autosize=1;strokeColor=none;fillColor=none;container=0;" parent="1" vertex="1">
          <mxGeometry x="430" y="580" width="30" height="30" as="geometry" />
        </mxCell>
        <mxCell id="9J0fWJdIPTmFVP43Fnf9-184" value="1" style="text;html=1;align=center;verticalAlign=middle;resizable=0;points=[];autosize=1;strokeColor=none;fillColor=none;container=0;" parent="1" vertex="1">
          <mxGeometry x="-170" y="507.5" width="30" height="30" as="geometry" />
        </mxCell>
        <mxCell id="9J0fWJdIPTmFVP43Fnf9-185" value="1" style="text;html=1;align=center;verticalAlign=middle;resizable=0;points=[];autosize=1;strokeColor=none;fillColor=none;container=0;" parent="1" vertex="1">
          <mxGeometry x="-310" y="507.5" width="30" height="30" as="geometry" />
        </mxCell>
        <mxCell id="9J0fWJdIPTmFVP43Fnf9-186" value="1" style="text;html=1;align=center;verticalAlign=middle;resizable=0;points=[];autosize=1;strokeColor=none;fillColor=none;container=0;" parent="1" vertex="1">
          <mxGeometry x="-10" y="290" width="30" height="30" as="geometry" />
        </mxCell>
        <mxCell id="9J0fWJdIPTmFVP43Fnf9-187" value="1" style="text;html=1;align=center;verticalAlign=middle;resizable=0;points=[];autosize=1;strokeColor=none;fillColor=none;container=0;" parent="1" vertex="1">
          <mxGeometry x="-10" y="377.5" width="30" height="30" as="geometry" />
        </mxCell>
        <mxCell id="9J0fWJdIPTmFVP43Fnf9-188" value="1" style="text;html=1;align=center;verticalAlign=middle;resizable=0;points=[];autosize=1;strokeColor=none;fillColor=none;container=0;" parent="1" vertex="1">
          <mxGeometry x="590" y="970" width="30" height="30" as="geometry" />
        </mxCell>
        <mxCell id="9J0fWJdIPTmFVP43Fnf9-189" value="M" style="text;html=1;align=center;verticalAlign=middle;resizable=0;points=[];autosize=1;strokeColor=none;fillColor=none;container=0;" parent="1" vertex="1">
          <mxGeometry x="590" y="1060" width="30" height="30" as="geometry" />
        </mxCell>
        <mxCell id="WrNDhfFTUlPGMNDQMFtp-2" value="1" style="text;html=1;align=center;verticalAlign=middle;resizable=0;points=[];autosize=1;strokeColor=none;fillColor=none;container=0;" parent="1" vertex="1">
          <mxGeometry x="890" y="710" width="30" height="30" as="geometry" />
        </mxCell>
        <mxCell id="WrNDhfFTUlPGMNDQMFtp-3" value="M" style="text;html=1;align=center;verticalAlign=middle;resizable=0;points=[];autosize=1;strokeColor=none;fillColor=none;container=0;" parent="1" vertex="1">
          <mxGeometry x="890" y="780" width="30" height="30" as="geometry" />
        </mxCell>
        <mxCell id="9J0fWJdIPTmFVP43Fnf9-15" value="Admin" style="whiteSpace=wrap;html=1;align=center;container=0;fillColor=#dae8fc;strokeColor=#6c8ebf;" parent="1" vertex="1">
          <mxGeometry x="-30" y="190" width="100" height="40" as="geometry" />
        </mxCell>
        <mxCell id="9J0fWJdIPTmFVP43Fnf9-130" value="User ID" style="ellipse;whiteSpace=wrap;html=1;align=center;fontStyle=4;container=0;fillColor=#fff2cc;strokeColor=#d6b656;" parent="1" vertex="1">
          <mxGeometry x="-30" y="110" width="100" height="40" as="geometry" />
        </mxCell>
        <mxCell id="9J0fWJdIPTmFVP43Fnf9-131" value="" style="endArrow=none;html=1;rounded=0;exitX=0.5;exitY=1;exitDx=0;exitDy=0;entryX=0.5;entryY=0;entryDx=0;entryDy=0;" parent="1" source="9J0fWJdIPTmFVP43Fnf9-130" target="9J0fWJdIPTmFVP43Fnf9-15" edge="1">
          <mxGeometry relative="1" as="geometry">
            <mxPoint x="-60" y="160" as="sourcePoint" />
            <mxPoint x="100" y="160" as="targetPoint" />
          </mxGeometry>
        </mxCell>
        <mxCell id="WrNDhfFTUlPGMNDQMFtp-5" value="Conducts" style="shape=rhombus;perimeter=rhombusPerimeter;whiteSpace=wrap;html=1;align=center;container=0;fillColor=#d5e8d4;strokeColor=#82b366;" parent="1" vertex="1">
          <mxGeometry x="310" y="750" width="120" height="60" as="geometry" />
        </mxCell>
        <mxCell id="WrNDhfFTUlPGMNDQMFtp-6" value="" style="endArrow=none;html=1;rounded=0;entryX=0.25;entryY=1;entryDx=0;entryDy=0;exitX=0.5;exitY=0;exitDx=0;exitDy=0;" parent="1" source="WrNDhfFTUlPGMNDQMFtp-5" target="9J0fWJdIPTmFVP43Fnf9-14" edge="1">
          <mxGeometry relative="1" as="geometry">
            <mxPoint x="230" y="690" as="sourcePoint" />
            <mxPoint x="390" y="690" as="targetPoint" />
            <Array as="points">
              <mxPoint x="370" y="390" />
            </Array>
          </mxGeometry>
        </mxCell>
        <mxCell id="WrNDhfFTUlPGMNDQMFtp-7" value="" style="endArrow=none;html=1;rounded=0;entryX=0.5;entryY=0;entryDx=0;entryDy=0;exitX=0.5;exitY=1;exitDx=0;exitDy=0;" parent="1" source="WrNDhfFTUlPGMNDQMFtp-5" target="9J0fWJdIPTmFVP43Fnf9-13" edge="1">
          <mxGeometry relative="1" as="geometry">
            <mxPoint x="290" y="800" as="sourcePoint" />
            <mxPoint x="450" y="800" as="targetPoint" />
            <Array as="points">
              <mxPoint x="430" y="860" />
            </Array>
          </mxGeometry>
        </mxCell>
        <mxCell id="WrNDhfFTUlPGMNDQMFtp-8" value="Age" style="ellipse;whiteSpace=wrap;html=1;align=center;dashed=1;container=0;fillColor=#fff2cc;strokeColor=#d6b656;" parent="1" vertex="1">
          <mxGeometry x="-610" y="597.5" width="100" height="40" as="geometry" />
        </mxCell>
        <mxCell id="WrNDhfFTUlPGMNDQMFtp-9" value="D.O.B" style="ellipse;whiteSpace=wrap;html=1;align=center;container=0;fillColor=#fff2cc;strokeColor=#d6b656;" parent="1" vertex="1">
          <mxGeometry x="-750" y="492.5" width="100" height="40" as="geometry" />
        </mxCell>
        <mxCell id="WrNDhfFTUlPGMNDQMFtp-10" value="" style="endArrow=none;html=1;rounded=0;exitX=1;exitY=0.5;exitDx=0;exitDy=0;entryX=-0.012;entryY=0.616;entryDx=0;entryDy=0;entryPerimeter=0;" parent="1" source="WrNDhfFTUlPGMNDQMFtp-9" target="9J0fWJdIPTmFVP43Fnf9-10" edge="1">
          <mxGeometry relative="1" as="geometry">
            <mxPoint x="-570" y="580" as="sourcePoint" />
            <mxPoint x="-410" y="580" as="targetPoint" />
          </mxGeometry>
        </mxCell>
        <mxCell id="WrNDhfFTUlPGMNDQMFtp-11" value="" style="endArrow=none;html=1;rounded=0;entryX=0.5;entryY=0;entryDx=0;entryDy=0;exitX=0.402;exitY=0.999;exitDx=0;exitDy=0;exitPerimeter=0;" parent="1" source="9J0fWJdIPTmFVP43Fnf9-10" target="WrNDhfFTUlPGMNDQMFtp-8" edge="1">
          <mxGeometry relative="1" as="geometry">
            <mxPoint x="-560" y="530" as="sourcePoint" />
            <mxPoint x="-410" y="580" as="targetPoint" />
          </mxGeometry>
        </mxCell>
        <mxCell id="WrNDhfFTUlPGMNDQMFtp-12" value="1" style="text;html=1;align=center;verticalAlign=middle;resizable=0;points=[];autosize=1;strokeColor=none;fillColor=none;container=0;" parent="1" vertex="1">
          <mxGeometry x="335" y="728" width="30" height="30" as="geometry" />
        </mxCell>
        <mxCell id="WrNDhfFTUlPGMNDQMFtp-13" value="M" style="text;html=1;align=center;verticalAlign=middle;resizable=0;points=[];autosize=1;strokeColor=none;fillColor=none;container=0;" parent="1" vertex="1">
          <mxGeometry x="335" y="798" width="30" height="30" as="geometry" />
        </mxCell>
        <mxCell id="WrNDhfFTUlPGMNDQMFtp-14" value="Attends" style="shape=rhombus;perimeter=rhombusPerimeter;whiteSpace=wrap;html=1;align=center;container=0;fillColor=#d5e8d4;strokeColor=#82b366;" parent="1" vertex="1">
          <mxGeometry x="-370" y="810" width="120" height="60" as="geometry" />
        </mxCell>
        <mxCell id="WrNDhfFTUlPGMNDQMFtp-15" value="" style="endArrow=none;html=1;rounded=0;exitX=0.75;exitY=1;exitDx=0;exitDy=0;entryX=0.5;entryY=0;entryDx=0;entryDy=0;" parent="1" source="9J0fWJdIPTmFVP43Fnf9-10" target="WrNDhfFTUlPGMNDQMFtp-14" edge="1">
          <mxGeometry relative="1" as="geometry">
            <mxPoint x="210" y="980" as="sourcePoint" />
            <mxPoint x="370" y="980" as="targetPoint" />
            <Array as="points">
              <mxPoint x="-460" y="640" />
              <mxPoint x="-310" y="640" />
            </Array>
          </mxGeometry>
        </mxCell>
        <mxCell id="WrNDhfFTUlPGMNDQMFtp-16" value="" style="endArrow=none;html=1;rounded=0;exitX=0.5;exitY=1;exitDx=0;exitDy=0;entryX=0;entryY=0.75;entryDx=0;entryDy=0;" parent="1" source="WrNDhfFTUlPGMNDQMFtp-14" target="9J0fWJdIPTmFVP43Fnf9-13" edge="1">
          <mxGeometry relative="1" as="geometry">
            <mxPoint x="210" y="980" as="sourcePoint" />
            <mxPoint x="370" y="980" as="targetPoint" />
            <Array as="points">
              <mxPoint x="-310" y="1230" />
            </Array>
          </mxGeometry>
        </mxCell>
        <mxCell id="WrNDhfFTUlPGMNDQMFtp-17" value="1" style="text;html=1;align=center;verticalAlign=middle;resizable=0;points=[];autosize=1;strokeColor=none;fillColor=none;container=0;" parent="1" vertex="1">
          <mxGeometry x="-295" y="790" width="30" height="30" as="geometry" />
        </mxCell>
        <mxCell id="WrNDhfFTUlPGMNDQMFtp-18" value="M" style="text;html=1;align=center;verticalAlign=middle;resizable=0;points=[];autosize=1;strokeColor=none;fillColor=none;container=0;" parent="1" vertex="1">
          <mxGeometry x="-295" y="860" width="30" height="30" as="geometry" />
        </mxCell>
        <mxCell id="WrNDhfFTUlPGMNDQMFtp-20" value="Role" style="ellipse;whiteSpace=wrap;html=1;align=center;container=0;fillColor=#fff2cc;strokeColor=#d6b656;" parent="1" vertex="1">
          <mxGeometry x="130" y="460" width="100" height="40" as="geometry" />
        </mxCell>
        <mxCell id="WrNDhfFTUlPGMNDQMFtp-22" value="" style="endArrow=none;html=1;rounded=0;exitX=0.997;exitY=0.166;exitDx=0;exitDy=0;exitPerimeter=0;entryX=0.043;entryY=0.724;entryDx=0;entryDy=0;entryPerimeter=0;" parent="1" source="9J0fWJdIPTmFVP43Fnf9-1" target="WrNDhfFTUlPGMNDQMFtp-20" edge="1">
          <mxGeometry relative="1" as="geometry">
            <mxPoint x="170" y="560" as="sourcePoint" />
            <mxPoint x="330" y="560" as="targetPoint" />
          </mxGeometry>
        </mxCell>
        <mxCell id="9J0fWJdIPTmFVP43Fnf9-14" value="Recruiter" style="whiteSpace=wrap;html=1;align=center;container=0;fillColor=#dae8fc;strokeColor=#6c8ebf;" parent="1" vertex="1">
          <mxGeometry x="410" y="240" width="100" height="40" as="geometry" />
        </mxCell>
        <mxCell id="9J0fWJdIPTmFVP43Fnf9-93" value="User ID" style="ellipse;whiteSpace=wrap;html=1;align=center;container=0;fillColor=#fff2cc;strokeColor=#d6b656;" parent="1" vertex="1">
          <mxGeometry x="410" y="120" width="100" height="40" as="geometry" />
        </mxCell>
        <mxCell id="9J0fWJdIPTmFVP43Fnf9-94" value="Company Name&lt;span style=&quot;color: rgba(0, 0, 0, 0); font-family: monospace; font-size: 0px; text-align: start; text-wrap-mode: nowrap;&quot;&gt;%3CmxGraphModel%3E%3Croot%3E%3CmxCell%20id%3D%220%22%2F%3E%3CmxCell%20id%3D%221%22%20parent%3D%220%22%2F%3E%3CmxCell%20id%3D%222%22%20value%3D%22Attribute%22%20style%3D%22ellipse%3BwhiteSpace%3Dwrap%3Bhtml%3D1%3Balign%3Dcenter%3B%22%20vertex%3D%221%22%20parent%3D%221%22%3E%3CmxGeometry%20x%3D%22-580%22%20y%3D%2250%22%20width%3D%22100%22%20height%3D%2240%22%20as%3D%22geometry%22%2F%3E%3C%2FmxCell%3E%3C%2Froot%3E%3C%2FmxGraphModel%3E&lt;/span&gt;" style="ellipse;whiteSpace=wrap;html=1;align=center;container=0;fillColor=#fff2cc;strokeColor=#d6b656;" parent="1" vertex="1">
          <mxGeometry x="550" y="200" width="100" height="40" as="geometry" />
        </mxCell>
        <mxCell id="9J0fWJdIPTmFVP43Fnf9-95" value="Email" style="ellipse;whiteSpace=wrap;html=1;align=center;container=0;fillColor=#fff2cc;strokeColor=#d6b656;" parent="1" vertex="1">
          <mxGeometry x="280" y="200" width="100" height="40" as="geometry" />
        </mxCell>
        <mxCell id="9J0fWJdIPTmFVP43Fnf9-97" value="Phone Number" style="ellipse;shape=doubleEllipse;margin=3;whiteSpace=wrap;html=1;align=center;container=0;fillColor=#fff2cc;strokeColor=#d6b656;" parent="1" vertex="1">
          <mxGeometry x="300" y="140" width="100" height="40" as="geometry" />
        </mxCell>
        <mxCell id="9J0fWJdIPTmFVP43Fnf9-98" value="Recruiter ID" style="ellipse;whiteSpace=wrap;html=1;align=center;fontStyle=4;container=0;fillColor=#fff2cc;strokeColor=#d6b656;" parent="1" vertex="1">
          <mxGeometry x="520" y="140" width="100" height="40" as="geometry" />
        </mxCell>
        <mxCell id="9J0fWJdIPTmFVP43Fnf9-99" value="" style="endArrow=none;html=1;rounded=0;exitX=1;exitY=1;exitDx=0;exitDy=0;entryX=0;entryY=0.5;entryDx=0;entryDy=0;" parent="1" source="9J0fWJdIPTmFVP43Fnf9-95" target="9J0fWJdIPTmFVP43Fnf9-14" edge="1">
          <mxGeometry relative="1" as="geometry">
            <mxPoint x="420" y="110" as="sourcePoint" />
            <mxPoint x="580" y="110" as="targetPoint" />
          </mxGeometry>
        </mxCell>
        <mxCell id="9J0fWJdIPTmFVP43Fnf9-100" value="" style="endArrow=none;html=1;rounded=0;exitX=0.79;exitY=0.883;exitDx=0;exitDy=0;exitPerimeter=0;entryX=0.25;entryY=0;entryDx=0;entryDy=0;" parent="1" source="9J0fWJdIPTmFVP43Fnf9-97" target="9J0fWJdIPTmFVP43Fnf9-14" edge="1">
          <mxGeometry relative="1" as="geometry">
            <mxPoint x="420" y="110" as="sourcePoint" />
            <mxPoint x="580" y="110" as="targetPoint" />
          </mxGeometry>
        </mxCell>
        <mxCell id="9J0fWJdIPTmFVP43Fnf9-101" value="" style="endArrow=none;html=1;rounded=0;exitX=0.5;exitY=1;exitDx=0;exitDy=0;entryX=0.5;entryY=0;entryDx=0;entryDy=0;" parent="1" source="9J0fWJdIPTmFVP43Fnf9-93" target="9J0fWJdIPTmFVP43Fnf9-14" edge="1">
          <mxGeometry relative="1" as="geometry">
            <mxPoint x="430" y="120" as="sourcePoint" />
            <mxPoint x="590" y="120" as="targetPoint" />
          </mxGeometry>
        </mxCell>
        <mxCell id="9J0fWJdIPTmFVP43Fnf9-102" value="" style="endArrow=none;html=1;rounded=0;entryX=0.5;entryY=1;entryDx=0;entryDy=0;" parent="1" source="9J0fWJdIPTmFVP43Fnf9-14" target="9J0fWJdIPTmFVP43Fnf9-98" edge="1">
          <mxGeometry relative="1" as="geometry">
            <mxPoint x="440" y="130" as="sourcePoint" />
            <mxPoint x="600" y="130" as="targetPoint" />
          </mxGeometry>
        </mxCell>
        <mxCell id="9J0fWJdIPTmFVP43Fnf9-103" value="" style="endArrow=none;html=1;rounded=0;exitX=1;exitY=0.5;exitDx=0;exitDy=0;entryX=0.305;entryY=0.974;entryDx=0;entryDy=0;entryPerimeter=0;" parent="1" source="9J0fWJdIPTmFVP43Fnf9-14" target="9J0fWJdIPTmFVP43Fnf9-94" edge="1">
          <mxGeometry relative="1" as="geometry">
            <mxPoint x="450" y="140" as="sourcePoint" />
            <mxPoint x="580" y="240" as="targetPoint" />
          </mxGeometry>
        </mxCell>
        <mxCell id="9J0fWJdIPTmFVP43Fnf9-5" value="Jobs" style="whiteSpace=wrap;html=1;align=center;container=0;fillColor=#dae8fc;strokeColor=#6c8ebf;" parent="1" vertex="1">
          <mxGeometry x="850" y="410" width="100" height="40" as="geometry" />
        </mxCell>
        <mxCell id="9J0fWJdIPTmFVP43Fnf9-32" value="Recruiter ID" style="ellipse;whiteSpace=wrap;html=1;align=center;container=0;fillColor=#fff2cc;strokeColor=#d6b656;" parent="1" vertex="1">
          <mxGeometry x="780" y="270" width="100" height="40" as="geometry" />
        </mxCell>
        <mxCell id="9J0fWJdIPTmFVP43Fnf9-33" value="Job Title" style="ellipse;whiteSpace=wrap;html=1;align=center;container=0;fillColor=#fff2cc;strokeColor=#d6b656;" parent="1" vertex="1">
          <mxGeometry x="900" y="270" width="100" height="40" as="geometry" />
        </mxCell>
        <mxCell id="9J0fWJdIPTmFVP43Fnf9-35" value="Job&amp;nbsp;&lt;div&gt;Description&lt;/div&gt;" style="ellipse;whiteSpace=wrap;html=1;align=center;container=0;fillColor=#fff2cc;strokeColor=#d6b656;" parent="1" vertex="1">
          <mxGeometry x="980" y="330" width="100" height="40" as="geometry" />
        </mxCell>
        <mxCell id="9J0fWJdIPTmFVP43Fnf9-36" value="Location" style="ellipse;whiteSpace=wrap;html=1;align=center;container=0;fillColor=#fff2cc;strokeColor=#d6b656;" parent="1" vertex="1">
          <mxGeometry x="700" y="320" width="100" height="40" as="geometry" />
        </mxCell>
        <mxCell id="9J0fWJdIPTmFVP43Fnf9-37" value="Salary Range" style="ellipse;whiteSpace=wrap;html=1;align=center;container=0;fillColor=#fff2cc;strokeColor=#d6b656;" parent="1" vertex="1">
          <mxGeometry x="670" y="380" width="100" height="40" as="geometry" />
        </mxCell>
        <mxCell id="9J0fWJdIPTmFVP43Fnf9-38" value="Job Type" style="ellipse;whiteSpace=wrap;html=1;align=center;container=0;fillColor=#fff2cc;strokeColor=#d6b656;" parent="1" vertex="1">
          <mxGeometry x="1000" y="390" width="100" height="40" as="geometry" />
        </mxCell>
        <mxCell id="9J0fWJdIPTmFVP43Fnf9-42" value="" style="endArrow=none;html=1;rounded=0;exitX=0.75;exitY=0;exitDx=0;exitDy=0;entryX=0;entryY=1;entryDx=0;entryDy=0;" parent="1" source="9J0fWJdIPTmFVP43Fnf9-5" target="9J0fWJdIPTmFVP43Fnf9-35" edge="1">
          <mxGeometry relative="1" as="geometry">
            <mxPoint x="900" y="350" as="sourcePoint" />
            <mxPoint x="1060" y="350" as="targetPoint" />
          </mxGeometry>
        </mxCell>
        <mxCell id="9J0fWJdIPTmFVP43Fnf9-44" value="" style="endArrow=none;html=1;rounded=0;entryX=0.006;entryY=0.595;entryDx=0;entryDy=0;exitX=1;exitY=0.5;exitDx=0;exitDy=0;entryPerimeter=0;" parent="1" source="9J0fWJdIPTmFVP43Fnf9-5" target="9J0fWJdIPTmFVP43Fnf9-38" edge="1">
          <mxGeometry relative="1" as="geometry">
            <mxPoint x="910" y="400" as="sourcePoint" />
            <mxPoint x="1070" y="400" as="targetPoint" />
          </mxGeometry>
        </mxCell>
        <mxCell id="9J0fWJdIPTmFVP43Fnf9-45" value="" style="endArrow=none;html=1;rounded=0;entryX=0.303;entryY=0.966;entryDx=0;entryDy=0;entryPerimeter=0;exitX=0.6;exitY=0;exitDx=0;exitDy=0;exitPerimeter=0;" parent="1" source="9J0fWJdIPTmFVP43Fnf9-5" target="9J0fWJdIPTmFVP43Fnf9-33" edge="1">
          <mxGeometry relative="1" as="geometry">
            <mxPoint x="850" y="370" as="sourcePoint" />
            <mxPoint x="1010" y="370" as="targetPoint" />
          </mxGeometry>
        </mxCell>
        <mxCell id="9J0fWJdIPTmFVP43Fnf9-47" value="" style="endArrow=none;html=1;rounded=0;exitX=0.738;exitY=0.958;exitDx=0;exitDy=0;exitPerimeter=0;entryX=0.335;entryY=0.006;entryDx=0;entryDy=0;entryPerimeter=0;" parent="1" source="9J0fWJdIPTmFVP43Fnf9-32" target="9J0fWJdIPTmFVP43Fnf9-5" edge="1">
          <mxGeometry relative="1" as="geometry">
            <mxPoint x="850" y="370" as="sourcePoint" />
            <mxPoint x="1010" y="370" as="targetPoint" />
          </mxGeometry>
        </mxCell>
        <mxCell id="9J0fWJdIPTmFVP43Fnf9-48" value="" style="endArrow=none;html=1;rounded=0;exitX=0.884;exitY=0.829;exitDx=0;exitDy=0;exitPerimeter=0;entryX=0.2;entryY=0;entryDx=0;entryDy=0;entryPerimeter=0;" parent="1" source="9J0fWJdIPTmFVP43Fnf9-36" target="9J0fWJdIPTmFVP43Fnf9-5" edge="1">
          <mxGeometry relative="1" as="geometry">
            <mxPoint x="830" y="370" as="sourcePoint" />
            <mxPoint x="990" y="370" as="targetPoint" />
          </mxGeometry>
        </mxCell>
        <mxCell id="9J0fWJdIPTmFVP43Fnf9-49" value="" style="endArrow=none;html=1;rounded=0;exitX=1;exitY=0.5;exitDx=0;exitDy=0;entryX=0;entryY=0.5;entryDx=0;entryDy=0;" parent="1" source="9J0fWJdIPTmFVP43Fnf9-37" target="9J0fWJdIPTmFVP43Fnf9-5" edge="1">
          <mxGeometry relative="1" as="geometry">
            <mxPoint x="790" y="390" as="sourcePoint" />
            <mxPoint x="950" y="390" as="targetPoint" />
          </mxGeometry>
        </mxCell>
        <mxCell id="9J0fWJdIPTmFVP43Fnf9-12" value="Applications" style="whiteSpace=wrap;html=1;align=center;container=0;fillColor=#dae8fc;strokeColor=#6c8ebf;" parent="1" vertex="1">
          <mxGeometry x="590" y="860" width="100" height="40" as="geometry" />
        </mxCell>
        <mxCell id="9J0fWJdIPTmFVP43Fnf9-105" value="Application ID" style="ellipse;whiteSpace=wrap;html=1;align=center;fontStyle=4;container=0;fillColor=#fff2cc;strokeColor=#d6b656;" parent="1" vertex="1">
          <mxGeometry x="450" y="840" width="100" height="40" as="geometry" />
        </mxCell>
        <mxCell id="9J0fWJdIPTmFVP43Fnf9-106" value="Job ID&lt;span style=&quot;color: rgba(0, 0, 0, 0); font-family: monospace; font-size: 0px; text-align: start; text-wrap-mode: nowrap;&quot;&gt;%3CmxGraphModel%3E%3Croot%3E%3CmxCell%20id%3D%220%22%2F%3E%3CmxCell%20id%3D%221%22%20parent%3D%220%22%2F%3E%3CmxCell%20id%3D%222%22%20value%3D%22Attribute%22%20style%3D%22ellipse%3BwhiteSpace%3Dwrap%3Bhtml%3D1%3Balign%3Dcenter%3B%22%20vertex%3D%221%22%20parent%3D%221%22%3E%3CmxGeometry%20x%3D%22-570%22%20y%3D%22700%22%20width%3D%22100%22%20height%3D%2240%22%20as%3D%22geometry%22%2F%3E%3C%2FmxCell%3E%3C%2Froot%3E%3C%2FmxGraphModel%3E&lt;/span&gt;" style="ellipse;whiteSpace=wrap;html=1;align=center;container=0;fillColor=#fff2cc;strokeColor=#d6b656;" parent="1" vertex="1">
          <mxGeometry x="480" y="780" width="100" height="40" as="geometry" />
        </mxCell>
        <mxCell id="9J0fWJdIPTmFVP43Fnf9-107" value="Candidate Id" style="ellipse;whiteSpace=wrap;html=1;align=center;container=0;fillColor=#fff2cc;strokeColor=#d6b656;" parent="1" vertex="1">
          <mxGeometry x="590" y="740" width="100" height="40" as="geometry" />
        </mxCell>
        <mxCell id="9J0fWJdIPTmFVP43Fnf9-108" value="Status" style="ellipse;whiteSpace=wrap;html=1;align=center;container=0;fillColor=#fff2cc;strokeColor=#d6b656;" parent="1" vertex="1">
          <mxGeometry x="700" y="780" width="100" height="40" as="geometry" />
        </mxCell>
        <mxCell id="9J0fWJdIPTmFVP43Fnf9-109" value="Applied at" style="ellipse;whiteSpace=wrap;html=1;align=center;container=0;fillColor=#fff2cc;strokeColor=#d6b656;" parent="1" vertex="1">
          <mxGeometry x="730" y="840" width="100" height="40" as="geometry" />
        </mxCell>
        <mxCell id="9J0fWJdIPTmFVP43Fnf9-110" value="" style="endArrow=none;html=1;rounded=0;exitX=1;exitY=0.5;exitDx=0;exitDy=0;entryX=0;entryY=0.5;entryDx=0;entryDy=0;" parent="1" source="9J0fWJdIPTmFVP43Fnf9-105" target="9J0fWJdIPTmFVP43Fnf9-12" edge="1">
          <mxGeometry relative="1" as="geometry">
            <mxPoint x="640" y="810" as="sourcePoint" />
            <mxPoint x="800" y="810" as="targetPoint" />
          </mxGeometry>
        </mxCell>
        <mxCell id="9J0fWJdIPTmFVP43Fnf9-111" value="" style="endArrow=none;html=1;rounded=0;exitX=0.777;exitY=0.908;exitDx=0;exitDy=0;exitPerimeter=0;entryX=0.2;entryY=0;entryDx=0;entryDy=0;entryPerimeter=0;" parent="1" source="9J0fWJdIPTmFVP43Fnf9-106" target="9J0fWJdIPTmFVP43Fnf9-12" edge="1">
          <mxGeometry relative="1" as="geometry">
            <mxPoint x="650" y="820" as="sourcePoint" />
            <mxPoint x="610" y="857" as="targetPoint" />
          </mxGeometry>
        </mxCell>
        <mxCell id="9J0fWJdIPTmFVP43Fnf9-112" value="" style="endArrow=none;html=1;rounded=0;exitX=0.804;exitY=0.007;exitDx=0;exitDy=0;exitPerimeter=0;entryX=0.106;entryY=0.822;entryDx=0;entryDy=0;entryPerimeter=0;" parent="1" source="9J0fWJdIPTmFVP43Fnf9-12" target="9J0fWJdIPTmFVP43Fnf9-108" edge="1">
          <mxGeometry relative="1" as="geometry">
            <mxPoint x="660" y="830" as="sourcePoint" />
            <mxPoint x="820" y="830" as="targetPoint" />
          </mxGeometry>
        </mxCell>
        <mxCell id="9J0fWJdIPTmFVP43Fnf9-113" value="" style="endArrow=none;html=1;rounded=0;exitX=1;exitY=0.5;exitDx=0;exitDy=0;entryX=0.033;entryY=0.693;entryDx=0;entryDy=0;entryPerimeter=0;" parent="1" source="9J0fWJdIPTmFVP43Fnf9-12" target="9J0fWJdIPTmFVP43Fnf9-109" edge="1">
          <mxGeometry relative="1" as="geometry">
            <mxPoint x="670" y="840" as="sourcePoint" />
            <mxPoint x="830" y="840" as="targetPoint" />
          </mxGeometry>
        </mxCell>
        <mxCell id="9J0fWJdIPTmFVP43Fnf9-114" value="" style="endArrow=none;html=1;rounded=0;exitX=0.5;exitY=1;exitDx=0;exitDy=0;entryX=0.5;entryY=0;entryDx=0;entryDy=0;" parent="1" source="9J0fWJdIPTmFVP43Fnf9-107" target="9J0fWJdIPTmFVP43Fnf9-12" edge="1">
          <mxGeometry relative="1" as="geometry">
            <mxPoint x="680" y="850" as="sourcePoint" />
            <mxPoint x="840" y="850" as="targetPoint" />
          </mxGeometry>
        </mxCell>
        <mxCell id="WrNDhfFTUlPGMNDQMFtp-23" value="&lt;h2 style=&quot;line-height: 230%;&quot;&gt;&lt;font style=&quot;font-size: 52px; background-color: rgb(255, 252, 245);&quot;&gt;ER-Diagram for Recruitement System&lt;/font&gt;&lt;/h2&gt;" style="text;html=1;align=center;verticalAlign=middle;resizable=0;points=[];autosize=1;strokeColor=none;fillColor=none;" parent="1" vertex="1">
          <mxGeometry x="-297" y="1368" width="954" height="99" as="geometry" />
        </mxCell>
        <mxCell id="Hw73eSQ5d_mEdbuLpZZB-1" value="&lt;p class=&quot;ByLine&quot;&gt;Prepared by Aiman Raza, Agrim Kansal and Aizanul haque&lt;/p&gt;" style="text;html=1;align=center;verticalAlign=middle;resizable=0;points=[];autosize=1;strokeColor=none;fillColor=none;strokeWidth=10;fontSize=18;" vertex="1" parent="1">
          <mxGeometry x="-24.5" y="1432" width="495" height="72" as="geometry" />
        </mxCell>
      </root>
    </mxGraphModel>
  </diagram>
</mxfile>
